<?xml version="1.0" encoding="UTF-8" standalone="no"?>
<!-- Created with Inkscape (http://www.inkscape.org/) -->

<svg
   width="1000"
   height="1000"
   viewBox="0 0 264.58333 264.58334"
   version="1.1"
   id="svg5"
   inkscape:version="1.1.2 (0a00cf5339, 2022-02-04)"
   sodipodi:docname="internet1.svg"
   xmlns:inkscape="http://www.inkscape.org/namespaces/inkscape"
   xmlns:sodipodi="http://sodipodi.sourceforge.net/DTD/sodipodi-0.dtd"
   xmlns="http://www.w3.org/2000/svg"
   xmlns:svg="http://www.w3.org/2000/svg">
  <sodipodi:namedview
     id="namedview7"
     pagecolor="#ffffff"
     bordercolor="#666666"
     borderopacity="1.0"
     inkscape:pageshadow="2"
     inkscape:pageopacity="0.0"
     inkscape:pagecheckerboard="0"
     inkscape:document-units="px"
     showgrid="false"
     units="px"
     width="1000px"
     inkscape:zoom="0.99674932"
     inkscape:cx="424.88115"
     inkscape:cy="593.42905"
     inkscape:window-width="3072"
     inkscape:window-height="1664"
     inkscape:window-x="1080"
     inkscape:window-y="219"
     inkscape:window-maximized="1"
     inkscape:current-layer="layer1" />
  <defs
     id="defs2">
    <inkscape:path-effect
       effect="fillet_chamfer"
       id="path-effect54106"
       is_visible="true"
       lpeversion="1"
       satellites_param="F,0,0,1,0,1,0,1 @ F,0,0,1,0,1,0,1 @ F,0,0,1,0,1,0,1 @ F,0,0,1,0,1,0,1"
       unit="px"
       method="auto"
       mode="F"
       radius="1"
       chamfer_steps="1"
       flexible="false"
       use_knot_distance="true"
       apply_no_radius="true"
       apply_with_radius="true"
       only_selected="false"
       hide_knots="false" />
    <inkscape:path-effect
       effect="fillet_chamfer"
       id="path-effect54106-6"
       is_visible="true"
       lpeversion="1"
       satellites_param="F,0,0,1,0,1,0,1 @ F,0,0,1,0,1,0,1 @ F,0,0,1,0,1,0,1 @ F,0,0,1,0,1,0,1"
       unit="px"
       method="auto"
       mode="F"
       radius="1"
       chamfer_steps="1"
       flexible="false"
       use_knot_distance="true"
       apply_no_radius="true"
       apply_with_radius="true"
       only_selected="false"
       hide_knots="false" />
    <inkscape:path-effect
       effect="fillet_chamfer"
       id="path-effect54106-6-5"
       is_visible="true"
       lpeversion="1"
       satellites_param="F,0,0,1,0,1,0,1 @ F,0,0,1,0,1,0,1 @ F,0,0,1,0,1,0,1 @ F,0,0,1,0,1,0,1"
       unit="px"
       method="auto"
       mode="F"
       radius="1"
       chamfer_steps="1"
       flexible="false"
       use_knot_distance="true"
       apply_no_radius="true"
       apply_with_radius="true"
       only_selected="false"
       hide_knots="false" />
    <inkscape:path-effect
       effect="fillet_chamfer"
       id="path-effect54106-9"
       is_visible="true"
       lpeversion="1"
       satellites_param="F,0,0,1,0,1,0,1 @ F,0,0,1,0,1,0,1 @ F,0,0,1,0,1,0,1 @ F,0,0,1,0,1,0,1"
       unit="px"
       method="auto"
       mode="F"
       radius="1"
       chamfer_steps="1"
       flexible="false"
       use_knot_distance="true"
       apply_no_radius="true"
       apply_with_radius="true"
       only_selected="false"
       hide_knots="false" />
    <inkscape:path-effect
       effect="fillet_chamfer"
       id="path-effect54106-6-8"
       is_visible="true"
       lpeversion="1"
       satellites_param="F,0,0,1,0,1,0,1 @ F,0,0,1,0,1,0,1 @ F,0,0,1,0,1,0,1 @ F,0,0,1,0,1,0,1"
       unit="px"
       method="auto"
       mode="F"
       radius="1"
       chamfer_steps="1"
       flexible="false"
       use_knot_distance="true"
       apply_no_radius="true"
       apply_with_radius="true"
       only_selected="false"
       hide_knots="false" />
    <inkscape:path-effect
       effect="fillet_chamfer"
       id="path-effect54106-9-3"
       is_visible="true"
       lpeversion="1"
       satellites_param="F,0,0,1,0,1,0,1 @ F,0,0,1,0,1,0,1 @ F,0,0,1,0,1,0,1 @ F,0,0,1,0,0,0,1"
       unit="px"
       method="auto"
       mode="F"
       radius="1"
       chamfer_steps="1"
       flexible="false"
       use_knot_distance="true"
       apply_no_radius="true"
       apply_with_radius="true"
       only_selected="false"
       hide_knots="false" />
    <inkscape:path-effect
       effect="fillet_chamfer"
       id="path-effect54106-9-3-5"
       is_visible="true"
       lpeversion="1"
       satellites_param="F,0,0,1,0,1,0,1 @ F,0,0,1,0,1,0,1 @ F,0,0,1,0,1,0,1 @ F,0,0,1,0,0,0,1"
       unit="px"
       method="auto"
       mode="F"
       radius="1"
       chamfer_steps="1"
       flexible="false"
       use_knot_distance="true"
       apply_no_radius="true"
       apply_with_radius="true"
       only_selected="false"
       hide_knots="false" />
    <inkscape:path-effect
       effect="fill_between_many"
       method="originald"
       linkedpaths="#path5094,0,1|"
       id="path-effect5699" />
  </defs>
  <g
     inkscape:label="Vrstva 1"
     inkscape:groupmode="layer"
     id="layer1">
    <path
       id="rect52452-72"
       style="fill:none;stroke:#000001;stroke-width:0.529167;stroke-linecap:round;stroke-linejoin:round"
       d="m 213.31656,210.69573 h 16.51416 a 1,1 45 0 1 1,1 v 33.89457 a 1,1 135 0 1 -1,1 h -16.51416 a 1,1 45 0 1 -1,-1 l 0,-33.89457 a 1,1 135 0 1 1,-1 z"
       sodipodi:nodetypes="ccccc"
       inkscape:path-effect="#path-effect54106-9"
       inkscape:original-d="m 212.31656,210.69573 c 6.17139,0 12.34277,0 18.51416,0 0,11.96486 0,23.92971 0,35.89457 -6.17139,0 -12.34277,0 -18.51416,0 0,-11.96486 0,-23.92971 0,-35.89457 z" />
    <path
       id="rect52452-72-6"
       style="fill:none;stroke:#000001;stroke-width:0.661458;stroke-linecap:round;stroke-linejoin:round;stroke-miterlimit:4;stroke-dasharray:none"
       d="m 79.805932,215.85067 v 21.2204 a 1,1 135 0 1 -1,1 H 44.974293 a 1,1 45 0 1 -1,-1 v -22.2204 h 34.831639 a 1,1 45 0 1 1,1 z"
       sodipodi:nodetypes="ccccc"
       inkscape:path-effect="#path-effect54106-9-3"
       inkscape:original-d="m 79.805932,214.85067 c 0,7.74015 0,15.48027 0,23.2204 -11.943883,0 -23.887755,0 -35.831639,0 0,-7.74013 0,-15.48025 0,-23.2204 11.943884,0 23.887756,0 35.831639,0 z" />
    <path
       id="rect52452-72-6-3"
       style="fill:none;stroke:#000001;stroke-width:0.596365;stroke-linecap:round;stroke-linejoin:round;stroke-miterlimit:4;stroke-dasharray:none"
       d="m 78.87943,216.90901 v 17.91966 a 1,1 135 0 1 -1,1 H 45.926777 a 1,1 45 0 1 -1,-1 V 215.90901 H 77.87943 a 1,1 45 0 1 1,1 z"
       sodipodi:nodetypes="ccccc"
       inkscape:path-effect="#path-effect54106-9-3-5"
       inkscape:original-d="m 78.87943,215.90901 c 0,6.6399 0,13.27978 0,19.91966 -11.31755,0 -22.635097,0 -33.952653,0 0,-6.63988 0,-13.27976 0,-19.91966 11.317556,0 22.635103,0 33.952653,0 z" />
    <path
       id="rect52452-7-8"
       style="fill:none;stroke:#000001;stroke-width:0.529167;stroke-linecap:round;stroke-linejoin:round;stroke-miterlimit:4;stroke-dasharray:none"
       d="m 214.43907,212.66876 14.27282,0 a 1,1 45 0 1 1,1 v 29.54915 a 1,1 135 0 1 -1,1 l -14.27282,0 a 1,1 45 0 1 -1,-1 v -29.54915 a 1,1 135 0 1 1,-1 z"
       sodipodi:nodetypes="ccccc"
       inkscape:path-effect="#path-effect54106-6-8"
       inkscape:original-d="m 213.43907,212.66876 c 5.42427,0 10.84855,0 16.27282,0 0,10.51639 0,21.03276 0,31.54915 -5.42427,0 -10.84855,0 -16.27282,0 0,-10.51639 0,-21.03276 0,-31.54915 z" />
    <rect
       style="fill:none;fill-opacity:1;stroke:#000001;stroke-width:0.221419;stroke-linecap:round;stroke-linejoin:round;stroke-miterlimit:4;stroke-dasharray:none"
       id="rect54533-2"
       width="3.4078691"
       height="0.68144614"
       x="219.80838"
       y="211.33728" />
    <g
       id="g2395"
       transform="translate(-66.771065,6.8506134)"
       style="fill:none;fill-opacity:1">
      <path
         style="fill:none;stroke:#000000;stroke-width:0.79375;stroke-linecap:butt;stroke-linejoin:miter;stroke-miterlimit:4;stroke-dasharray:none;stroke-opacity:1;fill-opacity:1"
         d="m 129.79255,240.47653 3.954,-2.28285 3.95401,-2.28285 7.90801,-4.56569 h -34.39584 l -15.816016,9.13139"
         id="path696-7-6"
         sodipodi:nodetypes="cccccc" />
      <path
         style="fill:none;stroke:#000000;stroke-width:0.79375;stroke-linecap:butt;stroke-linejoin:miter;stroke-miterlimit:4;stroke-dasharray:none;stroke-opacity:1;fill-opacity:1"
         d="M 95.396714,240.47653 H 129.79255"
         id="path838-2" />
    </g>
    <path
       inkscape:original-d="M -42.333335,10.583333"
       inkscape:path-effect="#path-effect5699"
       d="M 49.250982,238.35802 H 72.534328 Z"
       id="path5701"
       style="fill:none;fill-opacity:1" />
    <path
       id="path5094"
       style="fill:none;fill-opacity:1;stroke:#000000;stroke-width:0.529167;stroke-linecap:butt;stroke-linejoin:miter;stroke-miterlimit:4;stroke-dasharray:none;stroke-opacity:1"
       d="m 49.250982,238.35802 h 23.283346 m -35.869988,7.2669 h 23.283334 m -23.283332,1e-5 12.586641,-7.2669 m 10.696691,7.2669 12.586654,-7.2669" />
    <path
       style="fill:none;fill-opacity:1;stroke:none;stroke-width:0.265446;stroke-miterlimit:4;stroke-dasharray:none;stroke-dashoffset:0;stroke-opacity:1"
       d="m 38.061645,245.22877 c 0.04146,-0.0415 2.604675,-1.53418 5.696032,-3.31716 l 5.620652,-3.24179 10.946009,-7.9e-4 c 9.133,-8e-4 10.90264,0.0282 10.68421,0.17503 -0.14399,0.0968 -2.7147,1.58991 -5.712677,3.31808 l -5.450884,3.14213 H 48.915626 c -6.011151,0 -10.895441,-0.0339 -10.853981,-0.0754 z"
       id="path6032" />
    <path
       style="fill:none;stroke:#000000;stroke-width:0.431702;stroke-linecap:butt;stroke-linejoin:miter;stroke-miterlimit:4;stroke-dasharray:none;stroke-opacity:1"
       d="M 205.38211,219.98968 171.30647,183.49989"
       id="path7029" />
    <path
       style="fill:none;stroke:#000000;stroke-width:0.461077;stroke-linecap:butt;stroke-linejoin:miter;stroke-miterlimit:4;stroke-dasharray:none;stroke-opacity:1"
       d="m 85.244105,221.06172 c -0.215007,0.96779 48.298545,-39.61006 48.298545,-39.61006"
       id="path7224" />
    <text
       xml:space="preserve"
       style="font-style:normal;font-weight:normal;font-size:16.9333px;line-height:1.25;font-family:sans-serif;letter-spacing:0px;word-spacing:0px;fill:#000000;fill-opacity:1;stroke:none;stroke-width:0.264583"
       x="99.838257"
       y="112.38947"
       id="text9835"><tspan
         sodipodi:role="line"
         id="tspan9833"
         style="font-size:16.9333px;stroke-width:0.264583"
         x="99.838257"
         y="112.38947">internet</tspan></text>
    <path
       style="fill:none;stroke:#000000;stroke-width:1.32291667;stroke-linecap:butt;stroke-linejoin:miter;stroke-opacity:1;stroke-miterlimit:4;stroke-dasharray:none"
       d="m 41.65098,142.51918 c -5.708044,-1.51775 -11.306561,-3.84142 -16.96876,-5.65314 -1.11157,-0.35567 -2.277427,-0.56787 -3.339723,-1.05121 -1.301054,-0.59197 -2.170671,-2.16613 -2.903577,-3.2204 -3.597141,-5.17441 -3.19002,-10.4166 -3.19002,-16.39937 0,-2.33708 -0.584683,-5.5891 0.401571,-7.71942 1.750154,-3.78036 5.000397,-6.303 7.71385,-9.318973 0.323758,-0.359852 2.10111,-2.272149 2.351267,-2.752027 0.853444,-1.63717 1.079996,-3.925985 1.079996,-5.748377 0,-4.505669 -4.61504,-9.45216 -6.304024,-13.633264 -2.137315,-5.29095 -0.785058,-12.195609 3.36221,-16.196884 2.156405,-2.080496 5.945695,-2.570525 8.66958,-3.090543 8.051581,-1.537133 16.725209,0.655043 24.314737,-2.797701 9.905527,-4.506373 14.251882,-19.39862 24.037981,-22.065895 6.607931,-1.801043 13.771043,0.215072 20.054732,2.299128 3.66312,1.214911 7.83283,3.448606 11.82545,2.672932 7.50167,-1.457404 12.70424,-7.809174 19.02853,-11.601137 4.31883,-2.589518 10.06495,-4.057876 15.02694,-4.595132 3.95599,-0.428333 8.9226,-0.890191 12.65418,0.826312 2.09828,0.965192 1.02605,0.662375 3.03378,2.080165 3.02684,2.137459 6.20975,3.965952 9.0925,6.334547 2.05551,1.688902 4.05131,3.493606 6.59617,4.429943 5.2949,1.948159 11.50513,1.610918 17.05745,1.464278 5.02646,-0.132749 9.66388,-0.770345 14.36267,1.50571 3.02219,1.463921 10.51223,8.245107 12.47617,11.0682 0.52972,0.761452 1.2414,2.521067 1.53876,3.497122 0.49798,1.634588 0.45427,3.040611 0.66361,4.687629 0.39263,3.088968 1.43663,6.45284 2.79406,9.27495 1.95556,4.065611 5.30723,7.558256 7.96403,11.145612 0.90257,1.218697 1.27693,2.040364 2.11275,3.26476 0.9733,1.425787 2.20713,2.862344 2.76392,4.53167 1.71121,5.130466 -4.91349,10.459653 -6.31439,15.262735 -1.86517,6.39487 1.8933,12.28437 3.56025,18.22979 0.55865,1.99248 1.25827,4.07596 0.81553,6.16565 -0.63324,2.98879 -3.55908,7.47516 -6.32846,8.84763 -4.52138,2.24075 -8.75664,1.76747 -12.0069,6.864 -1.15918,1.81763 -1.0717,7.15861 -1.14358,9.36437 -0.10069,3.09036 -0.90516,5.68696 -2.54118,8.30459 -0.34601,0.55363 -0.91747,1.58541 -1.46371,1.99583 -1.79272,1.34698 -8.5588,-0.37405 -10.24035,-0.75116 -4.29187,-0.96253 -8.4485,-1.89245 -12.74855,-2.7358 -4.64064,-0.91014 -9.60068,-2.37098 -14.3234,-1.04542 -1.89112,0.5308 -3.20417,2.34576 -4.61109,3.53317 -5.00754,4.22623 -8.71373,6.82585 -13.37289,11.33409 -3.32139,3.21379 -4.9216,7.45221 -9.98702,7.8596 -1.51873,0.12214 -3.98427,0.0359 -5.56135,-0.28988 -1.76984,-0.36561 -1.59765,-0.6111 -3.17175,-1.36051 -4.317,-2.05529 -8.24045,-4.25526 -12.02978,-7.21783 -2.55703,-1.99913 -5.19461,-5.0262 -8.54547,-5.63545 -5.15588,-0.93743 -9.61686,2.32216 -14.28718,3.87895 -5.909759,1.96994 -12.819043,-0.026 -16.916555,-4.71446 -3.692183,-4.22467 -4.983546,-8.24984 -10.541053,-10.5067 -0.216003,-0.0877 -2.692963,-0.99013 -3.195658,-1.06523 -6.036606,-0.90175 -11.96826,0.48838 -17.968232,0.91138 -3.153974,0.22235 -6.711699,0.73908 -9.683668,-0.64784 -2.148586,-1.00267 -8.91109,-5.5531 -7.203371,-8.89588 0.182853,-0.35793 1.482492,-0.89481 1.539017,-0.92511 z"
       id="path1869" />
  </g>
</svg>
