<?xml version="1.0" encoding="UTF-8" standalone="no"?>
<!-- Created with Inkscape (http://www.inkscape.org/) -->

<svg
   width="1000"
   height="1000"
   viewBox="0 0 264.58333 264.58334"
   version="1.1"
   id="svg5"
   inkscape:version="1.1.2 (0a00cf5339, 2022-02-04)"
   sodipodi:docname="electification1.svg"
   xmlns:inkscape="http://www.inkscape.org/namespaces/inkscape"
   xmlns:sodipodi="http://sodipodi.sourceforge.net/DTD/sodipodi-0.dtd"
   xmlns="http://www.w3.org/2000/svg"
   xmlns:svg="http://www.w3.org/2000/svg">
  <sodipodi:namedview
     id="namedview7"
     pagecolor="#ffffff"
     bordercolor="#666666"
     borderopacity="1.0"
     inkscape:pageshadow="2"
     inkscape:pageopacity="0.0"
     inkscape:pagecheckerboard="0"
     inkscape:document-units="px"
     showgrid="false"
     units="px"
     width="1000px"
     inkscape:zoom="1.0289025"
     inkscape:cx="574.8844"
     inkscape:cy="483.52492"
     inkscape:window-width="3072"
     inkscape:window-height="1664"
     inkscape:window-x="1080"
     inkscape:window-y="219"
     inkscape:window-maximized="1"
     inkscape:current-layer="layer1" />
  <defs
     id="defs2" />
  <g
     inkscape:label="Vrstva 1"
     inkscape:groupmode="layer"
     id="layer1">
    <path
       id="rect2520-9-94"
       style="fill:#ffffff;fill-opacity:1;stroke:#000200;stroke-width:1.27295"
       d="m 40.776444,161.60839 9.002351,-28.58085 9.00235,28.58085"
       sodipodi:nodetypes="ccc" />
    <path
       id="rect2520-9-5-9"
       style="fill:#ffffff;fill-opacity:1;stroke:#000200;stroke-width:1.24656"
       d="m 48.98206,161.334 9.237585,-26.71 9.237584,26.71"
       sodipodi:nodetypes="ccc" />
    <rect
       style="fill:#ffffff;fill-opacity:1;stroke:#000200;stroke-width:1.34726"
       id="rect1047-7"
       width="8.7897491"
       height="5.8887334"
       x="39.631527"
       y="85.033714" />
    <path
       id="rect2520-5"
       style="fill:#000000;fill-opacity:1;stroke:#000200;stroke-width:0.733165"
       d="m 34.869026,85.033715 9.237585,-9.239606 9.237584,9.239606"
       sodipodi:nodetypes="ccc" />
    <rect
       style="fill:#ffffff;stroke:#000200;stroke-width:1.34726"
       id="rect1047"
       width="8.7897491"
       height="5.8887334"
       x="35.239704"
       y="96.754021" />
    <path
       id="rect2520"
       style="stroke:#000200;stroke-width:0.733165"
       d="m 30.477204,96.754021 9.237585,-9.239606 9.237584,9.239606"
       sodipodi:nodetypes="ccc" />
    <rect
       style="fill:#ffffff;stroke:#000200;stroke-width:1.34726"
       id="rect1047-5"
       width="8.7897491"
       height="5.8887334"
       x="58.22517"
       y="91.294525" />
    <path
       id="rect2520-9"
       style="stroke:#000200;stroke-width:0.733165"
       d="m 53.462671,91.294527 9.237585,-9.239606 9.237584,9.239606"
       sodipodi:nodetypes="ccc" />
    <path
       id="rect2520-9-5"
       style="fill:#ffffff;fill-opacity:1;stroke:#000200;stroke-width:1.24656"
       d="m 55.198819,170.19019 9.237585,-26.71 9.237584,26.71"
       sodipodi:nodetypes="ccc" />
    <path
       id="rect2520-9-5-6"
       style="fill:#ffffff;fill-opacity:1;stroke:#000200;stroke-width:1.24656"
       d="m 27.135957,166.46282 9.237585,-26.71 9.237584,26.71"
       sodipodi:nodetypes="ccc" />
    <path
       id="rect2520-9-94-2"
       style="fill:#ffffff;fill-opacity:1;stroke:#000200;stroke-width:1.27295"
       d="m 208.54404,133.98364 9.00235,-28.58085 9.00235,28.58085"
       sodipodi:nodetypes="ccc" />
    <path
       id="rect2520-9-5-9-2"
       style="fill:#ffffff;fill-opacity:1;stroke:#000200;stroke-width:1.24656"
       d="m 216.74966,133.70925 9.23758,-26.71 9.23759,26.71"
       sodipodi:nodetypes="ccc" />
    <path
       id="rect2520-9-5-4"
       style="fill:#ffffff;fill-opacity:1;stroke:#000200;stroke-width:1.24656"
       d="m 222.96642,142.56544 9.23758,-26.71 9.23759,26.71"
       sodipodi:nodetypes="ccc" />
    <path
       id="rect2520-9-5-6-7"
       style="fill:#ffffff;fill-opacity:1;stroke:#000200;stroke-width:1.24656"
       d="m 194.90356,138.83807 9.23758,-26.71 9.23759,26.71"
       sodipodi:nodetypes="ccc" />
    <rect
       style="fill:#ffffff;fill-opacity:1;stroke:#000200;stroke-width:1.34726"
       id="rect1047-7-3"
       width="8.7897491"
       height="5.8887334"
       x="209.57388"
       y="54.110992" />
    <path
       id="rect2520-5-8"
       style="fill:#000000;fill-opacity:1;stroke:#000200;stroke-width:0.733165"
       d="m 204.81139,54.110993 9.23758,-9.239606 9.23759,9.239606"
       sodipodi:nodetypes="ccc" />
    <rect
       style="fill:#ffffff;stroke:#000200;stroke-width:1.34726"
       id="rect1047-8"
       width="8.7897491"
       height="5.8887334"
       x="205.18207"
       y="65.831299" />
    <path
       id="rect2520-3"
       style="stroke:#000200;stroke-width:0.733165"
       d="m 200.41956,65.831299 9.23759,-9.239606 9.23758,9.239606"
       sodipodi:nodetypes="ccc" />
    <rect
       style="fill:#ffffff;stroke:#000200;stroke-width:1.34726"
       id="rect1047-5-1"
       width="8.7897491"
       height="5.8887334"
       x="228.16753"
       y="60.371803" />
    <path
       id="rect2520-9-8"
       style="stroke:#000200;stroke-width:0.733165"
       d="m 223.40503,60.371805 9.23759,-9.239606 9.23758,9.239606"
       sodipodi:nodetypes="ccc" />
    <rect
       style="fill:#ffffff;fill-opacity:1;stroke:#000200;stroke-width:1.34726"
       id="rect1047-7-9"
       width="8.7897491"
       height="5.8887334"
       x="204.43086"
       y="188.08667" />
    <path
       id="rect2520-5-6"
       style="fill:#000000;fill-opacity:1;stroke:#000200;stroke-width:0.733165"
       d="m 199.66837,188.08668 9.23758,-9.23961 9.23758,9.23961"
       sodipodi:nodetypes="ccc" />
    <rect
       style="fill:#ffffff;stroke:#000200;stroke-width:1.34726"
       id="rect1047-4"
       width="8.7897491"
       height="5.8887334"
       x="200.03905"
       y="199.80698" />
    <path
       id="rect2520-33"
       style="stroke:#000200;stroke-width:0.733165"
       d="m 195.27654,199.80698 9.23759,-9.23961 9.23758,9.23961"
       sodipodi:nodetypes="ccc" />
    <rect
       style="fill:#ffffff;stroke:#000200;stroke-width:1.34726"
       id="rect1047-5-3"
       width="8.7897491"
       height="5.8887334"
       x="223.02451"
       y="194.34749" />
    <path
       id="rect2520-9-86"
       style="stroke:#000200;stroke-width:0.733165"
       d="m 218.26201,194.34749 9.23759,-9.23961 9.23758,9.23961"
       sodipodi:nodetypes="ccc" />
    <rect
       style="fill:#ffffff;fill-opacity:1;stroke:#000200;stroke-width:1.34726"
       id="rect1047-7-0"
       width="8.7897491"
       height="5.8887334"
       x="121.88539"
       y="132.02776" />
    <path
       id="rect2520-5-4"
       style="fill:#000000;fill-opacity:1;stroke:#000200;stroke-width:0.733165"
       d="m 117.12289,132.02775 9.23758,-9.2396 9.23759,9.2396"
       sodipodi:nodetypes="ccc" />
    <rect
       style="fill:#ffffff;stroke:#000200;stroke-width:1.34726"
       id="rect1047-88"
       width="8.7897491"
       height="5.8887334"
       x="117.49357"
       y="143.74806" />
    <path
       id="rect2520-8"
       style="stroke:#000200;stroke-width:0.733165"
       d="m 112.73107,143.74806 9.23758,-9.23961 9.23758,9.23961"
       sodipodi:nodetypes="ccc" />
    <rect
       style="fill:#ffffff;stroke:#000200;stroke-width:1.34726"
       id="rect1047-5-9"
       width="8.7897491"
       height="5.8887334"
       x="140.47903"
       y="138.28856" />
    <path
       id="rect2520-9-7"
       style="stroke:#000200;stroke-width:0.733165"
       d="m 135.71653,138.28857 9.23759,-9.23961 9.23758,9.23961"
       sodipodi:nodetypes="ccc" />
    <rect
       style="fill:#ffffff;fill-opacity:1;stroke:#000200;stroke-width:1.34726"
       id="rect1047-7-7"
       width="8.7897491"
       height="5.8887334"
       x="109.02784"
       y="27.624435" />
    <path
       id="rect2520-5-64"
       style="fill:#000000;fill-opacity:1;stroke:#000200;stroke-width:0.733165"
       d="m 104.26534,27.624437 9.23758,-9.239606 9.23759,9.239606"
       sodipodi:nodetypes="ccc" />
    <rect
       style="fill:#ffffff;stroke:#000200;stroke-width:1.34726"
       id="rect1047-3"
       width="8.7897491"
       height="5.8887334"
       x="104.63602"
       y="39.344742" />
    <path
       id="rect2520-0"
       style="stroke:#000200;stroke-width:0.733165"
       d="m 99.873514,39.344743 9.237586,-9.239606 9.23758,9.239606"
       sodipodi:nodetypes="ccc" />
    <rect
       style="fill:#ffffff;stroke:#000200;stroke-width:1.34726"
       id="rect1047-5-30"
       width="8.7897491"
       height="5.8887334"
       x="127.62148"
       y="33.885246" />
    <path
       id="rect2520-9-9"
       style="stroke:#000200;stroke-width:0.733165"
       d="m 122.85898,33.885249 9.23759,-9.239606 9.23758,9.239606"
       sodipodi:nodetypes="ccc" />
    <rect
       style="fill:#ffffff;fill-opacity:1;stroke:#000200;stroke-width:1.34726"
       id="rect3400"
       width="61.278282"
       height="21.022066"
       x="26.843718"
       y="224.48946" />
    <rect
       style="fill:#ffffff;fill-opacity:1;stroke:#000200;stroke-width:1.34726"
       id="rect3402"
       width="8.1479082"
       height="51.051601"
       x="18.906219"
       y="194.45992" />
    <rect
       style="fill:#ffffff;fill-opacity:1;stroke:#000200;stroke-width:1.34726"
       id="rect3506"
       width="4.701262"
       height="3.799758"
       x="33.114716"
       y="230.28951" />
    <rect
       style="fill:#ffffff;fill-opacity:1;stroke:#000200;stroke-width:1.34726"
       id="rect3506-2"
       width="4.701262"
       height="3.799758"
       x="44.227219"
       y="230.28951" />
    <rect
       style="fill:#ffffff;fill-opacity:1;stroke:#000200;stroke-width:1.34726"
       id="rect3506-5"
       width="4.701262"
       height="3.799758"
       x="55.339722"
       y="230.28951" />
    <rect
       style="fill:#ffffff;fill-opacity:1;stroke:#000200;stroke-width:1.34726"
       id="rect3506-4"
       width="4.701262"
       height="3.799758"
       x="66.452225"
       y="230.28951" />
    <rect
       style="fill:#ffffff;fill-opacity:1;stroke:#000200;stroke-width:1.34726"
       id="rect3506-0"
       width="4.701262"
       height="3.799758"
       x="77.56472"
       y="230.28951" />
    <path
       style="fill:none;stroke:#000000;stroke-width:0.79375;stroke-linecap:butt;stroke-linejoin:miter;stroke-miterlimit:4;stroke-dasharray:none;stroke-opacity:1"
       d="m 21.559753,182.84157 c -1.477851,-3.49643 -11.125745,-9.23029 -7.77546,-11.05005 0.612541,-0.33272 3.738633,-0.58718 3.888907,-1.28846 0.254755,-1.18885 -4.073218,-4.21691 -4.508053,-4.70613 -1.286616,-1.44751 -0.221462,-3.57833 -1.569588,-4.92645"
       id="path3687" />
    <path
       style="fill:none;stroke:#000000;stroke-width:0.79375;stroke-linecap:butt;stroke-linejoin:miter;stroke-miterlimit:4;stroke-dasharray:none;stroke-opacity:1"
       d="m 26.549569,193.94302 c -1.338253,-3.37879 -3.357852,-8.86531 -5.262052,-11.7775 -0.633403,-0.96869 -1.846018,-1.42371 -2.598192,-2.30337 -1.423907,-1.66525 2.663182,-3.45445 0.385726,-5.51428 -1.003761,-0.90784 -2.181822,-1.60226 -3.286397,-2.38433 -0.669048,-0.4737 -1.367262,-0.90545 -2.033885,-1.38256 -0.09858,-0.0705 -0.306988,-0.14665 -0.257151,-0.25715 0.199774,-0.44296 0.708742,-0.70267 0.89284,-1.15238 0.629916,-1.53872 -1.156819,-4.46175 -1.797766,-5.76154"
       id="path3689" />
    <path
       style="fill:none;stroke:#000000;stroke-width:0.79375;stroke-linecap:butt;stroke-linejoin:miter;stroke-miterlimit:4;stroke-dasharray:none;stroke-opacity:1"
       d="m 21.762457,193.93074 c -1.322859,-1.26362 -2.928818,-2.28568 -3.968576,-3.79087 -0.85589,-1.23902 -1.016384,-2.83579 -1.575019,-4.23424 -1.092774,-2.73556 -1.976664,-4.83862 -3.901337,-7.16868 -1.658634,-2.00798 -4.5217205,-2.43564 -5.7053479,-4.91716 -0.09936,-0.20832 0.121401,-0.45622 0.2571507,-0.64288 1.8746281,-2.57761 3.6689532,-0.55912 1.3408764,-3.47728 -1.4653961,-1.83682 -1.0281264,-1.22077 -2.5853205,-3.6122 -0.4275157,-0.65655 -0.8445077,-1.31997 -1.2559029,-1.98674 -0.050322,-0.0816 -0.2203172,-0.22944 -0.1285753,-0.25715 0.6666815,-0.20134 1.3756572,-0.21814 2.0634856,-0.32721"
       id="path3691" />
    <path
       style="fill:none;stroke:#000000;stroke-width:0.79375;stroke-linecap:butt;stroke-linejoin:miter;stroke-miterlimit:4;stroke-dasharray:none;stroke-opacity:1"
       d="m 24.408292,193.93074 c -0.21087,-1.75116 0.08503,-3.64226 -0.632613,-5.25348 -1.130274,-2.53765 -4.964834,-7.36354 -7.401912,-9.82645 -1.437765,-1.45301 -3.51981,-2.04701 -4.640679,-3.86653 -0.828951,-1.34564 0.995125,-1.65509 1.288235,-2.82753 0.904369,-3.61748 -1.351124,-6.5749 -4.0715984,-8.64042"
       id="path3693" />
    <path
       style="fill:none;stroke:#000000;stroke-width:0.79375;stroke-linecap:butt;stroke-linejoin:miter;stroke-miterlimit:4;stroke-dasharray:none;stroke-opacity:1"
       d="m 23.139555,193.93074 c -1.983587,-5.7336 -2.831823,-8.33253 -5.060463,-14.12786 -0.701784,-1.82491 -2.009326,-3.48298 -2.22995,-5.47143 -0.213272,-1.92217 1.425196,-3.0949 1.028604,-4.76059 -0.334308,-1.40409 -1.188528,-2.41594 -1.928633,-3.60011 -0.06184,-0.0989 -0.293891,-0.14047 -0.247483,-0.24751 0.328577,-0.75789 0.75151,-1.47128 1.127265,-2.20691"
       id="path3695" />
    <path
       style="fill:none;stroke:#000000;stroke-width:0.79375;stroke-linecap:butt;stroke-linejoin:miter;stroke-miterlimit:4;stroke-dasharray:none;stroke-opacity:1"
       d="m 21.559753,182.84157 c -0.956856,-0.37762 -2.070576,-0.48618 -2.870568,-1.13285 -2.735882,-2.21154 -2.014573,-5.99821 -1.923484,-8.97753 0.03927,-1.28451 -0.454704,-2.6073 -0.138276,-3.85284 0.160757,-0.63278 0.762288,-1.06323 1.083789,-1.63146 0.717564,-1.26824 -0.667721,-3.0912 -1.41816,-3.99115"
       id="path3697" />
    <path
       style="fill:none;stroke:#000000;stroke-width:0.79375;stroke-linecap:butt;stroke-linejoin:miter;stroke-miterlimit:4;stroke-dasharray:none;stroke-opacity:1"
       d="m 19.435386,193.93074 c 0.0033,-2.00065 0.343905,-4.02937 0.01,-6.00196 -0.27549,-1.62741 -1.243179,-3.05894 -1.806461,-4.61041 -1.368508,-3.76936 -0.41192,-2.87167 -1.091228,-5.45304 -1.281995,-4.87158 0.273501,2.24468 -1.028604,-2.95563 -0.176549,-0.7051 0.385727,-1.45865 0.385727,-2.18418 0,-0.80236 -0.860633,-5.43872 -0.851374,-5.45455 0.376522,-0.64359 1.179195,-0.91292 1.768793,-1.36938"
       id="path3699" />
    <path
       style="fill:none;stroke:#002dff;stroke-width:12.102;stroke-linecap:butt;stroke-linejoin:miter;stroke-miterlimit:4;stroke-dasharray:none;stroke-opacity:1"
       d="m 1.9055376,125.10774 c 5.0875548,1.606 10.5850614,3.17261 16.0142554,2.43516 4.652822,-0.63199 6.96049,-5.17533 12.587016,-5.56086 2.7655,-0.18948 5.563488,-0.28157 8.325602,0.0152 2.69929,0.29003 5.33554,1.06929 8.033047,1.37511 4.134609,0.46874 8.351473,0.30542 12.502879,0.30542 3.126981,0 6.250348,0.46585 9.374894,0.34096 1.986714,-0.0794 8.834574,-1.06715 11.483992,-1.60246 4.418378,-0.89275 15.645202,-2.67974 18.789621,-5.98944 1.204656,-1.26797 1.692606,-3.07476 2.459206,-4.65354 3.48897,-7.18539 5.01117,-15.05819 11.24144,-20.483615 3.94082,-3.431725 6.78211,-2.252926 11.86051,-2.575443 5.49219,-0.348798 0.14424,-0.810805 7.28899,-0.544745 3.08442,0.114861 5.83471,0.991533 8.93718,0.160349 0.80659,-0.216094 1.49776,-0.756051 2.28733,-1.029035 0.74243,-0.256684 1.54654,-0.297479 2.28926,-0.553269 4.72338,-1.626716 7.70336,-2.950138 10.55166,-7.282691 1.64002,-2.494638 1.85945,-6.118381 4.57466,-7.846385 0.68073,-0.433232 3.10584,0.774257 3.51196,0.903121 1.78923,0.567723 4.35942,0.710128 6.06679,1.697712 0.73993,0.427991 1.60971,1.061039 2.36948,1.38355 1.26406,0.536567 2.75037,0.46553 4.06636,0.643145 1.08189,0.146018 2.07995,0.715895 3.17611,0.900405 2.47197,0.416099 4.99324,0.541696 7.46316,0.974658 3.45207,0.605125 7.17632,1.353563 10.60956,2.226659 3.16897,0.805896 1.55501,0.45993 4.00531,2.212371 2.97363,2.126733 6.26828,3.971332 9.79138,4.955023 7.28288,2.033456 14.629,-0.0049 21.98664,-0.375635 1.18295,-0.05961 6.54924,-0.0076 7.56177,0.406 1.47877,0.604061 2.8261,1.604382 4.3053,2.238986 1.37196,0.588592 2.7802,0.939383 4.17129,1.458165 0.57217,0.21338 2.14547,0.955793 2.90675,0.900404 2.0614,-0.149982 3.99156,-0.815446 6.08367,-0.512913 2.00007,0.289219 3.61129,1.146593 5.62066,1.146593"
       id="path4098" />
  </g>
</svg>
