<?xml version="1.0" encoding="UTF-8" standalone="no"?>
<!-- Created with Inkscape (http://www.inkscape.org/) -->

<svg
   width="1000"
   height="1000"
   viewBox="0 0 264.58333 264.58334"
   version="1.1"
   id="svg5"
   inkscape:version="1.1.2 (0a00cf5339, 2022-02-04)"
   sodipodi:docname="graph-function.svg"
   xmlns:inkscape="http://www.inkscape.org/namespaces/inkscape"
   xmlns:sodipodi="http://sodipodi.sourceforge.net/DTD/sodipodi-0.dtd"
   xmlns="http://www.w3.org/2000/svg"
   xmlns:svg="http://www.w3.org/2000/svg">
  <sodipodi:namedview
     id="namedview7"
     pagecolor="#ffffff"
     bordercolor="#666666"
     borderopacity="1.0"
     inkscape:pageshadow="2"
     inkscape:pageopacity="0.0"
     inkscape:pagecheckerboard="0"
     inkscape:document-units="px"
     showgrid="false"
     units="px"
     width="1000px"
     inkscape:zoom="1.0289025"
     inkscape:cx="558.36194"
     inkscape:cy="483.52492"
     inkscape:window-width="3072"
     inkscape:window-height="1664"
     inkscape:window-x="1080"
     inkscape:window-y="27"
     inkscape:window-maximized="1"
     inkscape:current-layer="text6569" />
  <defs
     id="defs2" />
  <g
     inkscape:label="Vrstva 1"
     inkscape:groupmode="layer"
     id="layer1">
    <path
       style="fill:none;stroke:#000000;stroke-width:1.05833334;stroke-linecap:butt;stroke-linejoin:miter;stroke-opacity:1;stroke-miterlimit:4;stroke-dasharray:none"
       d="M 24.343306,179.25765 H 240.63623"
       id="path982" />
    <path
       style="fill:none;stroke:#000000;stroke-width:1.05833334;stroke-linecap:butt;stroke-linejoin:miter;stroke-opacity:1;stroke-miterlimit:4;stroke-dasharray:none"
       d="M 84.557107,17.302423 V 251.91928"
       id="path984" />
    <path
       style="fill:none;stroke:#0000ff;stroke-width:1.05833334;stroke-linecap:butt;stroke-linejoin:miter;stroke-opacity:1;stroke-miterlimit:4;stroke-dasharray:none"
       d="M 10.717786,202.71458 247.81902,65.824118"
       id="path1099" />
    <path
       id="path1123"
       style="fill:none;stroke:#00ff00;stroke-width:1.44559"
       d="m 130.05912,23.790384 c 0,85.575836 -20.31562,154.948756 -45.37619,154.948756 -25.060581,0 -45.376196,-69.37292 -45.376197,-154.948756"
       sodipodi:nodetypes="csc" />
    <g
       aria-label="f(x) = ax2"
       id="text6569"
       style="font-size:10.5833px;line-height:1.25;baseline-shift:baseline;stroke-width:0.264583">
      <path
         d="m 142.04191,34.282568 v 0.790646 h -0.9095 q -0.51159,0 -0.71313,0.206705 -0.19637,0.206706 -0.19637,0.744139 v 0.511595 h 1.56579 v 0.73897 h -1.56579 v 5.048772 h -0.95601 v -5.048772 h -0.9095 v -0.73897 h 0.9095 v -0.403075 q 0,-0.966346 0.44958,-1.405595 0.44959,-0.444415 1.42627,-0.444415 z"
         style="baseline-shift:baseline;fill:#00ff00"
         id="path1156" />
      <path
         d="m 145.12182,34.292903 q -0.69246,1.188554 -1.02836,2.35127 -0.33589,1.162716 -0.33589,2.356438 0,1.193722 0.33589,2.366773 0.34106,1.167883 1.02836,2.35127 H 144.295 q -0.77515,-1.214392 -1.16272,-2.387444 -0.3824,-1.173051 -0.3824,-2.330599 0,-1.152381 0.3824,-2.320265 0.38241,-1.167883 1.16272,-2.387443 z"
         style="baseline-shift:baseline;fill:#00ff00"
         id="path1158" />
      <path
         d="m 151.77772,36.535653 -2.09289,2.816356 2.20141,2.971386 h -1.12137 l -1.68465,-2.273756 -1.68465,2.273756 h -1.12137 l 2.24792,-3.02823 -2.05672,-2.759512 h 1.12138 l 1.53478,2.061883 1.53479,-2.061883 z"
         style="baseline-shift:baseline;fill:#00ff00"
         id="path1160" />
      <path
         d="m 153.07996,34.292903 h 0.82682 q 0.77515,1.21956 1.15755,2.387443 0.38757,1.167884 0.38757,2.320265 0,1.157548 -0.38757,2.330599 -0.3824,1.173052 -1.15755,2.387444 h -0.82682 q 0.6873,-1.183387 1.02319,-2.35127 0.34107,-1.173051 0.34107,-2.366773 0,-1.193722 -0.34107,-2.356438 -0.33589,-1.162716 -1.02319,-2.35127 z"
         style="baseline-shift:baseline;fill:#00ff00"
         id="path1162" />
      <path
         d="m 160.84691,37.517502 h 6.6249 v 0.868161 h -6.6249 z m 0,2.108392 h 6.6249 v 0.878496 h -6.6249 z"
         style="baseline-shift:baseline;fill:#00ff00"
         id="path1164" />
      <path
         d="m 175.58498,39.414021 q -1.15238,0 -1.5968,0.263549 -0.44441,0.263549 -0.44441,0.899167 0,0.506427 0.33073,0.80615 0.33589,0.294554 0.9095,0.294554 0.79064,0 1.26607,-0.558103 0.48059,-0.563272 0.48059,-1.493444 v -0.211873 z m 1.89652,-0.39274 v 3.302114 h -0.95084 v -0.878497 q -0.32556,0.527098 -0.81132,0.780312 -0.48576,0.248046 -1.18856,0.248046 -0.88883,0 -1.41593,-0.496092 -0.52193,-0.50126 -0.52193,-1.338416 0,-0.976681 0.65112,-1.472773 0.65629,-0.496092 1.95337,-0.496092 h 1.33325 v -0.09302 q 0,-0.656288 -0.43409,-1.012854 -0.42891,-0.361734 -1.20922,-0.361734 -0.49609,0 -0.96635,0.118855 -0.47025,0.118855 -0.90433,0.356566 v -0.878496 q 0.52193,-0.201538 1.01285,-0.299723 0.49093,-0.103352 0.95602,-0.103352 1.25573,0 1.87584,0.651121 0.62012,0.651121 0.62012,1.974033 z"
         style="baseline-shift:baseline;fill:#00ff00"
         id="path1166" />
      <path
         d="m 184.25109,36.535653 -2.09289,2.816356 2.20141,2.971386 h -1.12138 l -1.68464,-2.273756 -1.68465,2.273756 h -1.12137 l 2.24791,-3.02823 -2.05671,-2.759512 h 1.12137 l 1.53479,2.061883 1.53478,-2.061883 z"
         style="baseline-shift:baseline;fill:#00ff00"
         id="path1168" />
      <path
         d="m 186.45393,37.409408 h 2.82278 v 0.680667 h -3.79572 v -0.680667 q 0.46045,-0.476468 1.25321,-1.277252 0.79679,-0.804789 1.001,-1.037016 0.38838,-0.436428 0.54053,-0.736723 0.15614,-0.304297 0.15614,-0.596584 0,-0.476467 -0.33631,-0.776762 -0.33234,-0.300293 -0.86886,-0.300293 -0.38037,0 -0.80479,0.132129 -0.4204,0.132129 -0.90088,0.400392 v -0.8168 q 0.48848,-0.196193 0.91289,-0.296291 0.42441,-0.100098 0.77676,-0.100098 0.92891,0 1.48145,0.464456 0.55254,0.464454 0.55254,1.241216 0,0.368361 -0.14013,0.700687 -0.13613,0.328321 -0.50049,0.776762 -0.10012,0.11611 -0.63663,0.672659 -0.53653,0.55254 -1.51349,1.549518 z"
         style="baseline-shift:super;fill:#00ff00;stroke-width:0.205001"
         id="path1170" />
    </g>
    <text
       xml:space="preserve"
       style="font-style:normal;font-weight:normal;font-size:10.5833px;line-height:1.25;font-family:sans-serif;fill:#000000;fill-opacity:1;stroke:none;stroke-width:0.264583"
       x="199.88531"
       y="103.38044"
       id="text41741"><tspan
         sodipodi:role="line"
         style="fill:#0000ff;stroke-width:0.264583"
         x="199.88531"
         y="103.38044"
         id="tspan41743">f(x) = x + c</tspan></text>
  </g>
</svg>
